<?xml version="1.0" encoding="UTF-8"?>
<svg id="Layer_1" xmlns="http://www.w3.org/2000/svg" version="1.1" viewBox="0 0 407.16 185.57">
  <!-- Generator: Adobe Illustrator 29.8.3, SVG Export Plug-In . SVG Version: 2.1.1 Build 3)  -->
  <defs>
    <style>
      .st0 {
        fill: #070707;
      }
    </style>
  </defs>
  <g>
    <path class="st0" d="M63.84,132.66h-2.92c-.47,0-.83.04-1.08.11-.25.07-.49.33-.73.77l-9.87,18.33c-.24.44-.46.92-.69,1.42-.22.5-.41.97-.55,1.42-.21-.5-.4-.98-.58-1.44-.18-.46-.4-.91-.66-1.35l-10.01-18.38c-.24-.44-.48-.7-.73-.77-.25-.07-.61-.11-1.08-.11h-7.39v2.26c0,.35.1.63.29.82.19.19.46.33.82.42l2.17.45v24.03l-2.17.45c-.35.06-.63.18-.82.38s-.29.46-.29.82v2.3h11.65v-2.3c0-.35-.1-.63-.29-.82-.19-.19-.47-.32-.82-.38l-2.48-.51v-17.6c0-.35,0-.74-.02-1.15-.02-.41-.05-.84-.11-1.28l10.18,18.69c.44.83,1.09,1.24,1.95,1.24h.75c.89,0,1.53-.41,1.95-1.24l10.05-18.64c-.03.44-.06.86-.09,1.26-.03.4-.04.77-.04,1.13v17.61l-2.48.5c-.35.06-.62.18-.8.38-.18.19-.27.46-.27.82v2.3h11.6v-2.3c0-.35-.09-.63-.27-.82-.18-.19-.44-.32-.8-.38l-2.21-.45v-24.03l2.21-.45c.35-.09.62-.23.8-.42.18-.19.27-.47.27-.82v-2.26h-4.43Z"/>
    <path class="st0" d="M78.4,132.66h-7.62v2.26c0,.35.1.63.29.82.19.19.46.33.82.42l2.17.45v24.03l-2.17.45c-.35.06-.63.18-.82.38s-.29.46-.29.82v2.3h12.04v-2.3c0-.35-.1-.63-.29-.82-.19-.19-.45-.32-.77-.38l-2.26-.46v-24.01l2.26-.46c.32-.09.58-.23.77-.42.19-.19.29-.47.29-.82v-2.26h-4.43Z"/>
    <path class="st0" d="M112.59,161.09l-2.15-.44-5.68-8.2c-.53-.77-1.14-1.31-1.82-1.64,1.53-.47,2.84-1.13,3.92-1.97,1.08-.84,1.91-1.87,2.5-3.08.59-1.21.89-2.55.89-4.03,0-2.07-.48-3.76-1.44-5.09-.96-1.33-2.34-2.32-4.14-2.99-1.8-.67-3.97-1-6.51-1h-12.84v2.26c0,.35.1.63.29.82.19.19.46.33.82.42l2.17.45v24.03l-2.17.45c-.35.06-.63.18-.82.38s-.29.46-.29.82v2.3h12.04v-2.3c0-.35-.1-.63-.29-.82-.19-.19-.46-.32-.82-.38l-2.17-.44v-8.86h2.75c.59,0,1.03.08,1.33.24.29.16.58.44.84.82l7.17,10.63c.44.74,1.14,1.11,2.08,1.11h5.4v-2.3c0-.35-.1-.63-.29-.82-.19-.19-.45-.32-.77-.38ZM98.02,147.94h-3.94v-11.07h4.07c2.27,0,3.98.45,5.11,1.35,1.14.9,1.7,2.21,1.7,3.92,0,1.8-.61,3.22-1.82,4.25-1.21,1.03-2.92,1.55-5.14,1.55Z"/>
    <path class="st0" d="M142.65,161.09l-2.15-.44-5.68-8.2c-.53-.77-1.14-1.31-1.82-1.64,1.53-.47,2.84-1.13,3.92-1.97,1.08-.84,1.91-1.87,2.5-3.08.59-1.21.89-2.55.89-4.03,0-2.07-.48-3.76-1.44-5.09-.96-1.33-2.34-2.32-4.14-2.99-1.8-.67-3.97-1-6.51-1h-12.84v2.26c0,.35.1.63.29.82.19.19.46.33.82.42l2.17.45v24.03l-2.17.45c-.35.06-.63.18-.82.38s-.29.46-.29.82v2.3h12.04v-2.3c0-.35-.1-.63-.29-.82-.19-.19-.46-.32-.82-.38l-2.17-.44v-8.86h2.75c.59,0,1.03.08,1.33.24.29.16.58.44.84.82l7.17,10.63c.44.74,1.14,1.11,2.08,1.11h5.4v-2.3c0-.35-.1-.63-.29-.82-.19-.19-.45-.32-.77-.38ZM128.08,147.94h-3.94v-11.07h4.07c2.27,0,3.98.45,5.11,1.35,1.14.9,1.7,2.21,1.7,3.92,0,1.8-.61,3.22-1.82,4.25-1.21,1.03-2.92,1.55-5.14,1.55Z"/>
    <path class="st0" d="M171.92,136.91c-1.39-1.45-3.08-2.58-5.07-3.39-1.99-.81-4.18-1.22-6.58-1.22s-4.57.41-6.53,1.22c-1.96.81-3.65,1.94-5.07,3.39-1.39,1.45-2.47,3.17-3.25,5.16-.78,1.99-1.17,4.18-1.17,6.58s.39,4.49,1.17,6.49c.78,1.99,1.87,3.71,3.25,5.16,1.42,1.48,3.11,2.62,5.07,3.43,1.96.81,4.14,1.22,6.53,1.22s4.58-.41,6.58-1.22c1.99-.81,3.68-1.96,5.07-3.43,1.45-1.45,2.55-3.17,3.3-5.16.75-1.99,1.13-4.17,1.13-6.53s-.38-4.49-1.13-6.49c-.75-1.99-1.85-3.73-3.3-5.2ZM169.49,154.83c-.83,1.76-2.02,3.11-3.59,4.05-1.56.95-3.44,1.42-5.62,1.42s-4.02-.48-5.6-1.44c-1.58-.96-2.79-2.31-3.63-4.05-.84-1.74-1.26-3.79-1.26-6.15s.42-4.46,1.26-6.22c.84-1.76,2.05-3.11,3.63-4.07,1.58-.96,3.45-1.44,5.6-1.44s4.06.48,5.62,1.44c1.56.96,2.76,2.32,3.59,4.07.83,1.76,1.24,3.82,1.24,6.18s-.41,4.47-1.24,6.22Z"/>
    <path class="st0" d="M205.93,161.09l-2.15-.44-5.68-8.2c-.53-.77-1.14-1.31-1.82-1.64,1.53-.47,2.84-1.13,3.92-1.97,1.08-.84,1.91-1.87,2.5-3.08.59-1.21.89-2.55.89-4.03,0-2.07-.48-3.76-1.44-5.09-.96-1.33-2.34-2.32-4.14-2.99-1.8-.67-3.97-1-6.51-1h-12.84v2.26c0,.35.1.63.29.82.19.19.46.33.82.42l2.17.45v24.03l-2.17.45c-.35.06-.63.18-.82.38s-.29.46-.29.82v2.3h12.04v-2.3c0-.35-.1-.63-.29-.82-.19-.19-.46-.32-.82-.38l-2.17-.44v-8.86h2.75c.59,0,1.03.08,1.33.24.29.16.58.44.84.82l7.17,10.63c.44.74,1.14,1.11,2.08,1.11h5.4v-2.3c0-.35-.1-.63-.29-.82-.19-.19-.45-.32-.77-.38ZM191.36,147.94h-3.94v-11.07h4.07c2.27,0,3.98.45,5.11,1.35,1.14.9,1.7,2.21,1.7,3.92,0,1.8-.61,3.22-1.82,4.25-1.21,1.03-2.92,1.55-5.14,1.55Z"/>
    <path class="st0" d="M223.11,132.66h-3.23v2.26c0,.35.09.63.27.82s.44.33.8.42l2.17.44v24.04l-2.17.45c-.35.06-.63.18-.82.38s-.29.46-.29.82v2.3h23.29v-8.28h-2.21c-.33,0-.58.09-.77.27-.19.18-.33.46-.42.84l-.48,2.88h-10.63v-9.7h11.07v-4.16h-11.07v-9.48h10.63l.49,2.88c.09.35.23.62.42.8.19.18.45.27.77.27h2.21v-8.24h-20.01Z"/>
    <path class="st0" d="M249.45,132.66h-3.28v2.26c0,.35.1.63.29.82.19.19.46.33.82.42l2.17.45v24.03l-2.17.45c-.35.06-.63.18-.82.38s-.29.46-.29.82v2.3h12.04v-2.3c0-.35-.1-.63-.29-.82-.19-.19-.45-.32-.77-.38l-2.21-.45v-9.29h12.31v-4.34h-12.31v-10.05h10.63l.49,2.88c.09.35.23.62.42.8.19.18.45.27.78.27h2.21v-8.24h-20.01Z"/>
    <path class="st0" d="M275.89,132.66h-3.28v2.26c0,.35.1.63.29.82.19.19.46.33.82.42l2.17.45v24.03l-2.17.45c-.35.06-.63.18-.82.38s-.29.46-.29.82v2.3h12.04v-2.3c0-.35-.1-.63-.29-.82-.19-.19-.45-.32-.78-.38l-2.21-.45v-9.29h12.31v-4.34h-12.31v-10.05h10.63l.49,2.88c.09.35.23.62.42.8.19.18.45.27.77.27h2.21v-8.24h-20.01Z"/>
    <path class="st0" d="M302.32,132.66h-3.23v2.26c0,.35.09.63.27.82.18.19.44.33.8.42l2.17.44v24.04l-2.17.45c-.35.06-.63.18-.82.38s-.29.46-.29.82v2.3h23.29v-8.28h-2.21c-.33,0-.58.09-.78.27-.19.18-.33.46-.42.84l-.48,2.88h-10.63v-9.7h11.07v-4.16h-11.07v-9.48h10.63l.49,2.88c.09.35.23.62.42.8.19.18.45.27.78.27h2.21v-8.24h-20.01Z"/>
    <path class="st0" d="M349.26,157.37c-.18,0-.34.04-.49.11-.15.07-.29.17-.44.29-1.06.95-2.16,1.61-3.28,1.99s-2.33.58-3.63.58c-2.3,0-4.24-.51-5.82-1.53s-2.78-2.41-3.59-4.16c-.81-1.76-1.22-3.74-1.22-5.96,0-2.36.44-4.43,1.33-6.2.88-1.77,2.15-3.14,3.79-4.12,1.64-.97,3.59-1.46,5.87-1.46,1.21,0,2.42.13,3.63.4.82.18,1.55.39,2.22.62l.57,3.32c.09.38.23.66.42.84.19.18.45.27.77.27h2.21v-7.66c-1-.41-2.04-.8-3.12-1.17-1.08-.37-2.2-.67-3.37-.91-1.17-.24-2.4-.35-3.7-.35-2.3,0-4.46.41-6.46,1.22-2.01.81-3.73,1.94-5.18,3.39-1.42,1.45-2.52,3.17-3.32,5.18-.8,2.01-1.2,4.24-1.2,6.69,0,2.18.34,4.27,1.02,6.26.68,1.99,1.7,3.74,3.06,5.25,1.33,1.51,2.96,2.67,4.89,3.48,1.93.81,4.11,1.22,6.53,1.22,2.6,0,4.84-.45,6.73-1.35,1.89-.9,3.45-2.09,4.69-3.56l-2.17-2.3c-.21-.24-.46-.35-.75-.35Z"/>
    <path class="st0" d="M354.48,132.66v8.41h2.21c.32,0,.59-.09.8-.27.21-.18.34-.46.4-.84l.49-2.88h5.97v23.56l-2.17.44c-.35.06-.62.18-.8.38-.18.19-.27.46-.27.82v2.3h11.96v-2.3c0-.35-.1-.63-.29-.82-.19-.19-.45-.32-.77-.38l-2.21-.45v-23.55h5.93l.49,2.88c.09.38.23.66.42.84.19.18.45.27.78.27h2.21v-8.41h-25.15Z"/>
  </g>
  <path class="st0" d="M258.95,24.97c.39-.09.72-.25.96-.48.23-.25.37-.61.37-1.1v-2.77h-13.88c-.09,0-.16,0-.23.01h0s-13.87-.01-13.87-.01c-.57,0-1.01.09-1.33.25-.32.16-.69.53-1.1,1.08l-27.92,49.45-28.69-49.45c-.32-.55-.66-.92-1.02-1.08s-.82-.25-1.39-.25h-27.99v2.77c0,.48.13.85.37,1.1.25.23.57.39.96.48l7.97.93v74.99l-7.97.93c-.39,0-.72.15-.96.42-.23.29-.37.67-.37,1.15v2.77h38.97v-2.77c0-.48-.12-.86-.37-1.15-.23-.28-.55-.42-.96-.42l-8.56-1.01v-45.6l19.91,34.54c.64,1.12,1.49,1.69,2.54,1.69h1.08c1.05,0,1.88-.57,2.53-1.69l3.93-6.98,4.03,6.98c.64,1.12,1.49,1.69,2.54,1.69h1.08c1.05,0,1.9-.57,2.54-1.69l19.07-33.86v44.91l-8.56,1.01c-.41,0-.73.15-.98.42-.23.29-.35.67-.35,1.15v2.77h38.97v-2.77c0-.48-.13-.86-.37-1.15-.25-.28-.57-.42-.96-.42l-7.97-.93V25.91l7.97-.93ZM166.27,100.89l-3.91.45-4.53-.53V25.59l3.91-.45,4.53.53v75.23ZM196.69,80.72c-.34.64-.63,1.31-.91,1.99-.29.69-.55,1.31-.79,1.88-.25-.64-.48-1.28-.73-1.94-.23-.64-.55-1.24-.96-1.81l-21.36-36.84v-11.67c0-.64-.04-1.26-.13-1.81l26.88,46.65-2,3.55ZM231.19,32.45v12.15l-20.4,36.12c-.32.64-.63,1.31-.91,1.99-.29.69-.54,1.31-.79,1.88-.23-.64-.48-1.28-.72-1.94-.25-.64-.57-1.24-.96-1.81l-2.22-3.83,26.12-46.37c-.09.64-.13,1.26-.13,1.81ZM245.31,100.82l-4.53.53-3.91-.45v-19.78s-.01-55.52-.01-55.52l3.91-.45,1.33.16,3.2.37v75.16Z"/>
</svg>