<?xml version="1.0" encoding="UTF-8"?>
<svg id="Layer_1" xmlns="http://www.w3.org/2000/svg" version="1.1" viewBox="0 0 244.72 185.57">
  <!-- Generator: Adobe Illustrator 29.8.3, SVG Export Plug-In . SVG Version: 2.1.1 Build 3)  -->
  <defs>
    <style>
      .st0 {
        fill: #d09734;
      }
    </style>
  </defs>
  <path class="st0" d="M218.61,28.32c.66-.15,1.2-.42,1.62-.81.39-.42.61-1.03.61-1.84v-4.65h-23.29c-.15,0-.27,0-.39.02v-.02h-23.27c-.96,0-1.69.15-2.23.42-.54.27-1.15.88-1.84,1.81l-46.83,82.95L74.87,23.25c-.54-.93-1.1-1.54-1.71-1.81-.61-.27-1.37-.42-2.33-.42h-23.27v.02c-.12-.02-.24-.02-.39-.02h-23.29v4.65c0,.81.22,1.42.61,1.84.42.39.95.66,1.62.81l13.37,1.57v125.79l-13.37,1.57c-.66,0-1.2.24-1.62.71-.39.49-.61,1.13-.61,1.93v4.65h65.37v-4.65c0-.81-.2-1.45-.61-1.93-.39-.47-.93-.71-1.62-.71l-14.35-1.69v-76.49l33.41,57.95c1.08,1.89,2.5,2.84,4.26,2.84h1.81c1.76,0,3.16-.96,4.24-2.84l6.59-11.71,6.76,11.71c1.08,1.89,2.5,2.84,4.26,2.84h1.81c1.76,0,3.18-.96,4.26-2.84l31.99-56.8v75.34l-14.35,1.69c-.69,0-1.22.24-1.64.71-.39.49-.59,1.13-.59,1.93v4.65h65.37v-4.65c0-.81-.22-1.45-.61-1.93-.42-.47-.95-.71-1.62-.71l-13.37-1.57V29.89l13.37-1.57ZM63.14,155.68l-6.56.76-7.59-.88V29.35l6.56-.76,7.59.88v126.21ZM114.18,121.83c-.56,1.08-1.05,2.2-1.52,3.33-.49,1.15-.93,2.2-1.32,3.16-.42-1.08-.81-2.16-1.22-3.26-.39-1.08-.93-2.08-1.62-3.04l-35.83-61.79v-19.57c0-1.08-.07-2.11-.22-3.04l45.09,78.25-3.36,5.95ZM172.05,40.86v20.38l-34.22,60.59c-.54,1.08-1.05,2.2-1.52,3.33-.49,1.15-.91,2.2-1.32,3.16-.39-1.08-.81-2.16-1.2-3.26-.42-1.08-.95-2.08-1.62-3.04l-3.72-6.42,43.82-77.79c-.15,1.08-.22,2.11-.22,3.04ZM195.74,155.56l-7.59.88-6.56-.76v-33.14l-.02-.05V29.35l6.56-.76,2.23.27,5.36.61.02,126.09Z"/>
</svg>